<mxfile host="app.diagrams.net" agent="Mozilla/5.0 (Windows NT 10.0; Win64; x64) AppleWebKit/537.36 (KHTML, like Gecko) Chrome/136.0.0.0 Safari/537.36 Edg/136.0.0.0" version="27.0.6">
  <diagram name="Page-1" id="ex1MJ398KPCUyJdJWwi4">
    <mxGraphModel dx="5101" dy="3182" grid="1" gridSize="10" guides="1" tooltips="1" connect="1" arrows="1" fold="1" page="1" pageScale="1" pageWidth="827" pageHeight="1169" math="0" shadow="0">
      <root>
        <mxCell id="0" />
        <mxCell id="1" parent="0" />
        <mxCell id="3KlsglkxvtRmeQMmvutP-35" value="" style="rounded=0;whiteSpace=wrap;html=1;gradientColor=none;" vertex="1" parent="1">
          <mxGeometry x="-1203" y="-50" width="1560" height="1680" as="geometry" />
        </mxCell>
        <mxCell id="3KlsglkxvtRmeQMmvutP-37" value="&lt;font style=&quot;font-size: 39px;&quot;&gt;&lt;b&gt;Er-diagram&amp;nbsp; HealNest&lt;/b&gt;&lt;/font&gt;&lt;div&gt;&lt;font style=&quot;font-size: 39px;&quot;&gt;&lt;b style=&quot;&quot;&gt;&amp;nbsp;system&amp;nbsp;&lt;/b&gt;&lt;/font&gt;&lt;/div&gt;" style="text;html=1;align=center;verticalAlign=middle;whiteSpace=wrap;rounded=0;" vertex="1" parent="1">
          <mxGeometry x="-622.5" y="10" width="442.5" height="20" as="geometry" />
        </mxCell>
        <mxCell id="3KlsglkxvtRmeQMmvutP-38" value="&lt;font style=&quot;font-size: 40px;&quot;&gt;&lt;b style=&quot;&quot;&gt;user&lt;/b&gt;&lt;/font&gt;" style="whiteSpace=wrap;html=1;align=center;fillColor=#b1ddf0;strokeColor=#10739e;" vertex="1" parent="1">
          <mxGeometry x="-948" y="300" width="249" height="70" as="geometry" />
        </mxCell>
        <mxCell id="3KlsglkxvtRmeQMmvutP-45" value="&lt;font style=&quot;font-size: 35px;&quot;&gt;&lt;b style=&quot;&quot;&gt;owner&amp;nbsp;&lt;/b&gt;&lt;/font&gt;" style="whiteSpace=wrap;html=1;align=center;fillColor=#b1ddf0;strokeColor=#10739e;" vertex="1" parent="1">
          <mxGeometry x="-220" y="310" width="246" height="70" as="geometry" />
        </mxCell>
        <mxCell id="3KlsglkxvtRmeQMmvutP-55" value="" style="endArrow=none;html=1;rounded=0;entryX=0.5;entryY=1;entryDx=0;entryDy=0;exitX=0.25;exitY=0;exitDx=0;exitDy=0;" edge="1" parent="1" source="3KlsglkxvtRmeQMmvutP-38" target="3KlsglkxvtRmeQMmvutP-62">
          <mxGeometry relative="1" as="geometry">
            <mxPoint x="-1040" y="310" as="sourcePoint" />
            <mxPoint x="-1027" y="220" as="targetPoint" />
          </mxGeometry>
        </mxCell>
        <mxCell id="3KlsglkxvtRmeQMmvutP-56" value="" style="endArrow=none;html=1;rounded=0;entryX=0.5;entryY=1;entryDx=0;entryDy=0;exitX=0.5;exitY=0;exitDx=0;exitDy=0;" edge="1" parent="1" source="3KlsglkxvtRmeQMmvutP-38" target="3KlsglkxvtRmeQMmvutP-61">
          <mxGeometry relative="1" as="geometry">
            <mxPoint x="-836" y="312.00999999999976" as="sourcePoint" />
            <mxPoint x="-884.5" y="182" as="targetPoint" />
          </mxGeometry>
        </mxCell>
        <mxCell id="3KlsglkxvtRmeQMmvutP-60" value="&lt;font style=&quot;font-size: 31px;&quot;&gt;&lt;u style=&quot;&quot;&gt;&lt;b&gt;user-ID&lt;/b&gt;&lt;/u&gt;&lt;/font&gt;" style="ellipse;whiteSpace=wrap;html=1;align=center;" vertex="1" parent="1">
          <mxGeometry x="-790" y="140" width="190" height="70" as="geometry" />
        </mxCell>
        <mxCell id="3KlsglkxvtRmeQMmvutP-61" value="&lt;font style=&quot;font-size: 31px;&quot;&gt;&lt;b&gt;username&lt;/b&gt;&lt;/font&gt;" style="ellipse;whiteSpace=wrap;html=1;align=center;" vertex="1" parent="1">
          <mxGeometry x="-963.5" y="80" width="189" height="70" as="geometry" />
        </mxCell>
        <mxCell id="3KlsglkxvtRmeQMmvutP-62" value="&lt;font style=&quot;font-size: 30px;&quot;&gt;&lt;b&gt;passward&lt;/b&gt;&lt;/font&gt;" style="ellipse;whiteSpace=wrap;html=1;align=center;" vertex="1" parent="1">
          <mxGeometry x="-1150" y="150" width="174" height="70" as="geometry" />
        </mxCell>
        <mxCell id="3KlsglkxvtRmeQMmvutP-84" value="" style="endArrow=none;html=1;rounded=0;entryX=0.5;entryY=1;entryDx=0;entryDy=0;exitX=0.25;exitY=0;exitDx=0;exitDy=0;" edge="1" parent="1" source="3KlsglkxvtRmeQMmvutP-45" target="3KlsglkxvtRmeQMmvutP-85">
          <mxGeometry relative="1" as="geometry">
            <mxPoint x="-577.7999999999997" y="286.21000000000004" as="sourcePoint" />
            <mxPoint x="-580.2396488335412" y="208.52478052096285" as="targetPoint" />
          </mxGeometry>
        </mxCell>
        <mxCell id="3KlsglkxvtRmeQMmvutP-85" value="&lt;font style=&quot;font-size: 31px;&quot;&gt;&lt;u style=&quot;&quot;&gt;&lt;b style=&quot;&quot;&gt;owner-ID&lt;/b&gt;&lt;/u&gt;&lt;/font&gt;" style="ellipse;whiteSpace=wrap;html=1;align=center;" vertex="1" parent="1">
          <mxGeometry x="-560" y="110" width="180" height="70" as="geometry" />
        </mxCell>
        <mxCell id="3KlsglkxvtRmeQMmvutP-86" value="" style="endArrow=none;html=1;rounded=0;entryX=0.5;entryY=1;entryDx=0;entryDy=0;exitX=0.5;exitY=0;exitDx=0;exitDy=0;" edge="1" parent="1" source="3KlsglkxvtRmeQMmvutP-45" target="3KlsglkxvtRmeQMmvutP-87">
          <mxGeometry relative="1" as="geometry">
            <mxPoint x="-100" y="292" as="sourcePoint" />
            <mxPoint x="-100" y="237" as="targetPoint" />
          </mxGeometry>
        </mxCell>
        <mxCell id="3KlsglkxvtRmeQMmvutP-87" value="&lt;font style=&quot;font-size: 31px;&quot;&gt;&lt;b&gt;name&lt;/b&gt;&lt;/font&gt;" style="ellipse;whiteSpace=wrap;html=1;align=center;" vertex="1" parent="1">
          <mxGeometry x="-358" y="100" width="186" height="70" as="geometry" />
        </mxCell>
        <mxCell id="3KlsglkxvtRmeQMmvutP-88" value="" style="endArrow=none;html=1;rounded=0;endSize=0;targetPerimeterSpacing=-18;startSize=9;jumpSize=0;entryX=0.623;entryY=0.905;entryDx=0;entryDy=0;entryPerimeter=0;exitX=0.636;exitY=0.076;exitDx=0;exitDy=0;exitPerimeter=0;" edge="1" parent="1" source="3KlsglkxvtRmeQMmvutP-45" target="3KlsglkxvtRmeQMmvutP-89">
          <mxGeometry relative="1" as="geometry">
            <mxPoint x="-40" y="310" as="sourcePoint" />
            <mxPoint x="20" y="222" as="targetPoint" />
          </mxGeometry>
        </mxCell>
        <mxCell id="3KlsglkxvtRmeQMmvutP-89" value="&lt;font style=&quot;font-size: 31px;&quot;&gt;&lt;b&gt;email&lt;/b&gt;&lt;/font&gt;" style="ellipse;whiteSpace=wrap;html=1;align=center;" vertex="1" parent="1">
          <mxGeometry x="-150" y="100" width="206" height="70" as="geometry" />
        </mxCell>
        <mxCell id="3KlsglkxvtRmeQMmvutP-92" value="&lt;font style=&quot;font-size: 33px;&quot;&gt;&lt;b style=&quot;&quot;&gt;phone&lt;/b&gt;&lt;/font&gt;" style="ellipse;whiteSpace=wrap;html=1;align=center;" vertex="1" parent="1">
          <mxGeometry x="70" y="100" width="220" height="70" as="geometry" />
        </mxCell>
        <mxCell id="3KlsglkxvtRmeQMmvutP-94" value="" style="endArrow=none;html=1;rounded=0;exitX=0.5;exitY=0;exitDx=0;exitDy=0;" edge="1" parent="1">
          <mxGeometry relative="1" as="geometry">
            <mxPoint x="-823.33" y="545" as="sourcePoint" />
            <mxPoint x="-823.33" y="365" as="targetPoint" />
          </mxGeometry>
        </mxCell>
        <mxCell id="3KlsglkxvtRmeQMmvutP-95" value="&lt;font style=&quot;font-size: 32px;&quot;&gt;&lt;b&gt;ADDS&lt;/b&gt;&lt;/font&gt;" style="shape=rhombus;double=1;perimeter=rhombusPerimeter;whiteSpace=wrap;html=1;align=center;" vertex="1" parent="1">
          <mxGeometry x="-913.5" y="530" width="180" height="140" as="geometry" />
        </mxCell>
        <mxCell id="3KlsglkxvtRmeQMmvutP-97" value="" style="endArrow=none;html=1;rounded=0;exitX=0.5;exitY=1;exitDx=0;exitDy=0;entryX=0.371;entryY=0.01;entryDx=0;entryDy=0;entryPerimeter=0;" edge="1" parent="1" target="3KlsglkxvtRmeQMmvutP-98">
          <mxGeometry relative="1" as="geometry">
            <mxPoint x="-826.5" y="670" as="sourcePoint" />
            <mxPoint x="-510" y="750" as="targetPoint" />
            <Array as="points">
              <mxPoint x="-504" y="670" />
            </Array>
          </mxGeometry>
        </mxCell>
        <mxCell id="3KlsglkxvtRmeQMmvutP-98" value="&lt;font style=&quot;font-size: 36px;&quot;&gt;&lt;b style=&quot;&quot;&gt;Pets&lt;/b&gt;&lt;/font&gt;" style="whiteSpace=wrap;html=1;align=center;fillColor=#b1ddf0;strokeColor=#10739e;" vertex="1" parent="1">
          <mxGeometry x="-600" y="760" width="260" height="70" as="geometry" />
        </mxCell>
        <mxCell id="3KlsglkxvtRmeQMmvutP-101" value="" style="endArrow=none;html=1;rounded=0;endSize=0;targetPerimeterSpacing=-18;startSize=9;jumpSize=0;exitX=0.5;exitY=0;exitDx=0;exitDy=0;entryX=0.5;entryY=1;entryDx=0;entryDy=0;" edge="1" parent="1" source="3KlsglkxvtRmeQMmvutP-105" target="3KlsglkxvtRmeQMmvutP-98">
          <mxGeometry relative="1" as="geometry">
            <mxPoint x="-502" y="840" as="sourcePoint" />
            <mxPoint x="-436" y="802" as="targetPoint" />
          </mxGeometry>
        </mxCell>
        <mxCell id="3KlsglkxvtRmeQMmvutP-103" value="" style="endArrow=none;html=1;rounded=0;endSize=0;targetPerimeterSpacing=-18;startSize=9;jumpSize=0;exitX=0.646;exitY=-0.011;exitDx=0;exitDy=0;entryX=0.411;entryY=1.017;entryDx=0;entryDy=0;entryPerimeter=0;exitPerimeter=0;" edge="1" parent="1" source="3KlsglkxvtRmeQMmvutP-106" target="3KlsglkxvtRmeQMmvutP-98">
          <mxGeometry relative="1" as="geometry">
            <mxPoint x="-700" y="835" as="sourcePoint" />
            <mxPoint x="-634" y="797" as="targetPoint" />
          </mxGeometry>
        </mxCell>
        <mxCell id="3KlsglkxvtRmeQMmvutP-104" value="&lt;font style=&quot;font-size: 33px;&quot;&gt;&lt;b style=&quot;&quot;&gt;age&lt;/b&gt;&lt;/font&gt;" style="ellipse;whiteSpace=wrap;html=1;align=center;" vertex="1" parent="1">
          <mxGeometry x="-905.5" y="880" width="172" height="70" as="geometry" />
        </mxCell>
        <mxCell id="3KlsglkxvtRmeQMmvutP-105" value="&lt;font style=&quot;font-size: 31px;&quot;&gt;&lt;u style=&quot;&quot;&gt;&lt;b&gt;Pet-ID&lt;/b&gt;&lt;/u&gt;&lt;/font&gt;" style="ellipse;whiteSpace=wrap;html=1;align=center;" vertex="1" parent="1">
          <mxGeometry x="-820" y="950" width="170" height="70" as="geometry" />
        </mxCell>
        <mxCell id="3KlsglkxvtRmeQMmvutP-106" value="&lt;font style=&quot;font-size: 31px;&quot;&gt;&lt;b&gt;name&lt;/b&gt;&lt;/font&gt;" style="ellipse;whiteSpace=wrap;html=1;align=center;" vertex="1" parent="1">
          <mxGeometry x="-997" y="810" width="170" height="70" as="geometry" />
        </mxCell>
        <mxCell id="3KlsglkxvtRmeQMmvutP-107" value="" style="endArrow=none;html=1;rounded=0;exitX=0.5;exitY=0;exitDx=0;exitDy=0;" edge="1" parent="1" source="3KlsglkxvtRmeQMmvutP-104">
          <mxGeometry relative="1" as="geometry">
            <mxPoint x="-690.242455760248" y="907.6805922716012" as="sourcePoint" />
            <mxPoint x="-540" y="829" as="targetPoint" />
          </mxGeometry>
        </mxCell>
        <mxCell id="3KlsglkxvtRmeQMmvutP-108" value="" style="endArrow=none;html=1;rounded=0;entryX=0.75;entryY=1;entryDx=0;entryDy=0;exitX=0.5;exitY=0;exitDx=0;exitDy=0;" edge="1" parent="1" source="3KlsglkxvtRmeQMmvutP-109" target="3KlsglkxvtRmeQMmvutP-98">
          <mxGeometry relative="1" as="geometry">
            <mxPoint x="-400" y="830" as="sourcePoint" />
            <mxPoint x="-430" y="760" as="targetPoint" />
          </mxGeometry>
        </mxCell>
        <mxCell id="3KlsglkxvtRmeQMmvutP-109" value="&lt;font style=&quot;font-size: 31px;&quot;&gt;&lt;b&gt;gender&lt;/b&gt;&lt;/font&gt;" style="ellipse;whiteSpace=wrap;html=1;align=center;" vertex="1" parent="1">
          <mxGeometry x="-150" y="830" width="170" height="70" as="geometry" />
        </mxCell>
        <mxCell id="3KlsglkxvtRmeQMmvutP-148" value="" style="endArrow=none;html=1;rounded=0;exitX=0.5;exitY=0;exitDx=0;exitDy=0;" edge="1" parent="1">
          <mxGeometry relative="1" as="geometry">
            <mxPoint x="-97" y="555" as="sourcePoint" />
            <mxPoint x="-100" y="375" as="targetPoint" />
          </mxGeometry>
        </mxCell>
        <mxCell id="3KlsglkxvtRmeQMmvutP-149" value="&lt;font style=&quot;font-size: 34px;&quot;&gt;&lt;b&gt;has a&lt;/b&gt;&lt;/font&gt;" style="shape=rhombus;double=1;perimeter=rhombusPerimeter;whiteSpace=wrap;html=1;align=center;" vertex="1" parent="1">
          <mxGeometry x="-555" y="1080" width="170" height="130" as="geometry" />
        </mxCell>
        <mxCell id="3KlsglkxvtRmeQMmvutP-152" value="&lt;font style=&quot;font-size: 33px;&quot;&gt;&lt;b&gt;medical info&lt;/b&gt;&lt;/font&gt;" style="whiteSpace=wrap;html=1;align=center;fillColor=#b1ddf0;strokeColor=#10739e;" vertex="1" parent="1">
          <mxGeometry x="-580" y="1300" width="220" height="70" as="geometry" />
        </mxCell>
        <mxCell id="3KlsglkxvtRmeQMmvutP-157" value="&lt;font style=&quot;font-size: 31px;&quot;&gt;&lt;b&gt;pet-ID&lt;/b&gt;&lt;/font&gt;" style="ellipse;whiteSpace=wrap;html=1;align=center;" vertex="1" parent="1">
          <mxGeometry x="-810" y="1480" width="180" height="70" as="geometry" />
        </mxCell>
        <mxCell id="3KlsglkxvtRmeQMmvutP-165" value="" style="endArrow=none;html=1;rounded=0;exitX=0.5;exitY=0;exitDx=0;exitDy=0;entryX=0.25;entryY=1;entryDx=0;entryDy=0;" edge="1" parent="1" source="3KlsglkxvtRmeQMmvutP-157" target="3KlsglkxvtRmeQMmvutP-152">
          <mxGeometry relative="1" as="geometry">
            <mxPoint x="-758" y="1219" as="sourcePoint" />
            <mxPoint x="-900" y="1320" as="targetPoint" />
          </mxGeometry>
        </mxCell>
        <mxCell id="3KlsglkxvtRmeQMmvutP-166" value="" style="endArrow=none;html=1;rounded=0;exitX=0.5;exitY=0;exitDx=0;exitDy=0;entryX=0.25;entryY=1;entryDx=0;entryDy=0;" edge="1" parent="1" source="3KlsglkxvtRmeQMmvutP-167" target="3KlsglkxvtRmeQMmvutP-152">
          <mxGeometry relative="1" as="geometry">
            <mxPoint x="-645.5" y="1350" as="sourcePoint" />
            <mxPoint x="-750" y="1350" as="targetPoint" />
          </mxGeometry>
        </mxCell>
        <mxCell id="3KlsglkxvtRmeQMmvutP-167" value="&lt;font style=&quot;font-size: 31px;&quot;&gt;&lt;u style=&quot;&quot;&gt;&lt;b&gt;medical-ID&lt;/b&gt;&lt;/u&gt;&lt;/font&gt;" style="ellipse;whiteSpace=wrap;html=1;align=center;" vertex="1" parent="1">
          <mxGeometry x="-930" y="1380" width="206" height="70" as="geometry" />
        </mxCell>
        <mxCell id="3KlsglkxvtRmeQMmvutP-173" value="&lt;font style=&quot;font-size: 31px;&quot;&gt;&lt;b&gt;medical check date&lt;/b&gt;&lt;/font&gt;" style="ellipse;whiteSpace=wrap;html=1;align=center;" vertex="1" parent="1">
          <mxGeometry x="-260" y="1380" width="210" height="100" as="geometry" />
        </mxCell>
        <mxCell id="3KlsglkxvtRmeQMmvutP-186" value="&lt;font style=&quot;font-size: 31px;&quot;&gt;&lt;b&gt;next checkup date&lt;/b&gt;&lt;/font&gt;" style="ellipse;whiteSpace=wrap;html=1;align=center;" vertex="1" parent="1">
          <mxGeometry x="-400" y="1480" width="250" height="110" as="geometry" />
        </mxCell>
        <mxCell id="3KlsglkxvtRmeQMmvutP-194" value="&lt;span style=&quot;font-size: 25px;&quot;&gt;1&lt;/span&gt;" style="text;html=1;align=center;verticalAlign=middle;whiteSpace=wrap;rounded=0;" vertex="1" parent="1">
          <mxGeometry x="-905.5" y="480" width="60" height="50" as="geometry" />
        </mxCell>
        <mxCell id="3KlsglkxvtRmeQMmvutP-211" value="" style="endArrow=none;html=1;rounded=0;entryX=0.5;entryY=1;entryDx=0;entryDy=0;" edge="1" parent="1" target="3KlsglkxvtRmeQMmvutP-92">
          <mxGeometry relative="1" as="geometry">
            <mxPoint x="-30" y="307" as="sourcePoint" />
            <mxPoint x="-87" y="172" as="targetPoint" />
          </mxGeometry>
        </mxCell>
        <mxCell id="3KlsglkxvtRmeQMmvutP-214" value="" style="endArrow=none;html=1;rounded=0;exitX=0.888;exitY=0.105;exitDx=0;exitDy=0;exitPerimeter=0;" edge="1" parent="1">
          <mxGeometry relative="1" as="geometry">
            <mxPoint x="-783.6400000000003" y="311.34999999999945" as="sourcePoint" />
            <mxPoint x="-695" y="204" as="targetPoint" />
          </mxGeometry>
        </mxCell>
        <mxCell id="3KlsglkxvtRmeQMmvutP-215" value="&lt;font style=&quot;font-size: 31px;&quot;&gt;&lt;b&gt;OWNS&lt;/b&gt;&lt;/font&gt;" style="shape=rhombus;double=1;perimeter=rhombusPerimeter;whiteSpace=wrap;html=1;align=center;" vertex="1" parent="1">
          <mxGeometry x="-186" y="550" width="178" height="130" as="geometry" />
        </mxCell>
        <mxCell id="3KlsglkxvtRmeQMmvutP-217" value="" style="endArrow=none;html=1;rounded=0;exitX=0.596;exitY=0.143;exitDx=0;exitDy=0;exitPerimeter=0;" edge="1" parent="1">
          <mxGeometry relative="1" as="geometry">
            <mxPoint x="-445.03999999999996" y="765.0099999999998" as="sourcePoint" />
            <mxPoint x="-90" y="670.5" as="targetPoint" />
            <Array as="points">
              <mxPoint x="-445" y="671" />
            </Array>
          </mxGeometry>
        </mxCell>
        <mxCell id="3KlsglkxvtRmeQMmvutP-221" value="&lt;font style=&quot;font-size: 31px;&quot;&gt;&lt;b&gt;color&lt;/b&gt;&lt;/font&gt;" style="ellipse;whiteSpace=wrap;html=1;align=center;" vertex="1" parent="1">
          <mxGeometry x="-160" y="1029" width="170" height="70" as="geometry" />
        </mxCell>
        <mxCell id="3KlsglkxvtRmeQMmvutP-222" value="&lt;font style=&quot;font-size: 31px;&quot;&gt;&lt;b&gt;microchip number&lt;/b&gt;&lt;/font&gt;" style="ellipse;whiteSpace=wrap;html=1;align=center;" vertex="1" parent="1">
          <mxGeometry x="-340" y="1090" width="240" height="91" as="geometry" />
        </mxCell>
        <mxCell id="3KlsglkxvtRmeQMmvutP-223" value="&lt;font style=&quot;font-size: 31px;&quot;&gt;&lt;b&gt;owner-ID&lt;/b&gt;&lt;/font&gt;" style="ellipse;whiteSpace=wrap;html=1;align=center;" vertex="1" parent="1">
          <mxGeometry x="-450" y="1020" width="170" height="70" as="geometry" />
        </mxCell>
        <mxCell id="3KlsglkxvtRmeQMmvutP-224" value="&lt;font style=&quot;font-size: 31px;&quot;&gt;&lt;b&gt;gender&lt;/b&gt;&lt;/font&gt;" style="ellipse;whiteSpace=wrap;html=1;align=center;" vertex="1" parent="1">
          <mxGeometry x="110" y="600" width="170" height="70" as="geometry" />
        </mxCell>
        <mxCell id="3KlsglkxvtRmeQMmvutP-225" value="&lt;font style=&quot;font-size: 31px;&quot;&gt;&lt;b&gt;breed&lt;/b&gt;&lt;/font&gt;" style="ellipse;whiteSpace=wrap;html=1;align=center;" vertex="1" parent="1">
          <mxGeometry x="-150" y="940" width="170" height="70" as="geometry" />
        </mxCell>
        <mxCell id="3KlsglkxvtRmeQMmvutP-226" value="&lt;font style=&quot;font-size: 31px;&quot;&gt;&lt;b&gt;Type&lt;/b&gt;&lt;/font&gt;" style="ellipse;whiteSpace=wrap;html=1;align=center;" vertex="1" parent="1">
          <mxGeometry x="-750" y="1029" width="170" height="70" as="geometry" />
        </mxCell>
        <mxCell id="3KlsglkxvtRmeQMmvutP-227" value="" style="endArrow=none;html=1;rounded=0;exitX=0.5;exitY=0;exitDx=0;exitDy=0;" edge="1" parent="1" source="3KlsglkxvtRmeQMmvutP-225">
          <mxGeometry relative="1" as="geometry">
            <mxPoint x="-258" y="890" as="sourcePoint" />
            <mxPoint x="-380" y="830" as="targetPoint" />
          </mxGeometry>
        </mxCell>
        <mxCell id="3KlsglkxvtRmeQMmvutP-228" value="" style="endArrow=none;html=1;rounded=0;entryX=0.75;entryY=1;entryDx=0;entryDy=0;exitX=0.3;exitY=0.152;exitDx=0;exitDy=0;exitPerimeter=0;" edge="1" parent="1" source="3KlsglkxvtRmeQMmvutP-221">
          <mxGeometry relative="1" as="geometry">
            <mxPoint x="-210" y="890" as="sourcePoint" />
            <mxPoint x="-420" y="830" as="targetPoint" />
          </mxGeometry>
        </mxCell>
        <mxCell id="3KlsglkxvtRmeQMmvutP-229" value="" style="endArrow=none;html=1;rounded=0;entryX=0.75;entryY=1;entryDx=0;entryDy=0;exitX=0.5;exitY=0;exitDx=0;exitDy=0;" edge="1" parent="1" source="3KlsglkxvtRmeQMmvutP-226">
          <mxGeometry relative="1" as="geometry">
            <mxPoint x="-270" y="890" as="sourcePoint" />
            <mxPoint x="-480" y="830" as="targetPoint" />
          </mxGeometry>
        </mxCell>
        <mxCell id="3KlsglkxvtRmeQMmvutP-236" value="" style="endArrow=none;html=1;rounded=0;entryX=0.75;entryY=1;entryDx=0;entryDy=0;exitX=0.5;exitY=0;exitDx=0;exitDy=0;" edge="1" parent="1" source="3KlsglkxvtRmeQMmvutP-222">
          <mxGeometry relative="1" as="geometry">
            <mxPoint x="-199" y="1005.5" as="sourcePoint" />
            <mxPoint x="-450" y="824.5" as="targetPoint" />
          </mxGeometry>
        </mxCell>
        <mxCell id="3KlsglkxvtRmeQMmvutP-237" value="" style="endArrow=none;html=1;rounded=0;exitX=0.5;exitY=0;exitDx=0;exitDy=0;entryX=0.83;entryY=1.003;entryDx=0;entryDy=0;entryPerimeter=0;" edge="1" parent="1" source="3KlsglkxvtRmeQMmvutP-223">
          <mxGeometry relative="1" as="geometry">
            <mxPoint x="-460" y="888.79" as="sourcePoint" />
            <mxPoint x="-459.39999999999964" y="830" as="targetPoint" />
          </mxGeometry>
        </mxCell>
        <mxCell id="3KlsglkxvtRmeQMmvutP-241" value="" style="endArrow=none;html=1;rounded=0;exitX=0.5;exitY=0;exitDx=0;exitDy=0;" edge="1" parent="1" source="3KlsglkxvtRmeQMmvutP-149">
          <mxGeometry relative="1" as="geometry">
            <mxPoint x="-572" y="940" as="sourcePoint" />
            <mxPoint x="-470" y="830" as="targetPoint" />
          </mxGeometry>
        </mxCell>
        <mxCell id="3KlsglkxvtRmeQMmvutP-242" value="" style="endArrow=none;html=1;rounded=0;exitX=0.5;exitY=0;exitDx=0;exitDy=0;entryX=0.5;entryY=1;entryDx=0;entryDy=0;" edge="1" parent="1" source="3KlsglkxvtRmeQMmvutP-152" target="3KlsglkxvtRmeQMmvutP-149">
          <mxGeometry relative="1" as="geometry">
            <mxPoint x="-950" y="1439" as="sourcePoint" />
            <mxPoint x="-875" y="1360" as="targetPoint" />
          </mxGeometry>
        </mxCell>
        <mxCell id="3KlsglkxvtRmeQMmvutP-245" value="" style="endArrow=none;html=1;rounded=0;exitX=0.5;exitY=0;exitDx=0;exitDy=0;entryX=0.602;entryY=0.981;entryDx=0;entryDy=0;entryPerimeter=0;" edge="1" parent="1" source="3KlsglkxvtRmeQMmvutP-173" target="3KlsglkxvtRmeQMmvutP-152">
          <mxGeometry relative="1" as="geometry">
            <mxPoint x="-660" y="1519" as="sourcePoint" />
            <mxPoint x="-415" y="1420" as="targetPoint" />
          </mxGeometry>
        </mxCell>
        <mxCell id="3KlsglkxvtRmeQMmvutP-247" value="" style="endArrow=none;html=1;rounded=0;exitX=0.5;exitY=0;exitDx=0;exitDy=0;" edge="1" parent="1" source="3KlsglkxvtRmeQMmvutP-186">
          <mxGeometry relative="1" as="geometry">
            <mxPoint x="-590" y="1480" as="sourcePoint" />
            <mxPoint x="-430" y="1370" as="targetPoint" />
          </mxGeometry>
        </mxCell>
        <mxCell id="3KlsglkxvtRmeQMmvutP-248" value="&lt;font style=&quot;font-size: 31px;&quot;&gt;&lt;b style=&quot;&quot;&gt;&lt;u&gt;medical notes&lt;/u&gt;&lt;/b&gt;&lt;/font&gt;" style="ellipse;whiteSpace=wrap;html=1;align=center;" vertex="1" parent="1">
          <mxGeometry x="-619" y="1490" width="206" height="90" as="geometry" />
        </mxCell>
        <mxCell id="3KlsglkxvtRmeQMmvutP-249" value="" style="endArrow=none;html=1;rounded=0;entryX=0.5;entryY=1;entryDx=0;entryDy=0;exitX=0.5;exitY=0;exitDx=0;exitDy=0;" edge="1" parent="1" source="3KlsglkxvtRmeQMmvutP-248" target="3KlsglkxvtRmeQMmvutP-152">
          <mxGeometry relative="1" as="geometry">
            <mxPoint x="-620" y="1490" as="sourcePoint" />
            <mxPoint x="-425" y="1400" as="targetPoint" />
          </mxGeometry>
        </mxCell>
        <mxCell id="3KlsglkxvtRmeQMmvutP-250" value="&lt;font style=&quot;font-size: 25px;&quot;&gt;m&lt;/font&gt;" style="text;html=1;align=center;verticalAlign=middle;whiteSpace=wrap;rounded=0;" vertex="1" parent="1">
          <mxGeometry x="-750" y="630" width="60" height="30" as="geometry" />
        </mxCell>
        <mxCell id="3KlsglkxvtRmeQMmvutP-252" value="&lt;span style=&quot;font-size: 25px;&quot;&gt;1&lt;/span&gt;" style="text;html=1;align=center;verticalAlign=middle;whiteSpace=wrap;rounded=0;" vertex="1" parent="1">
          <mxGeometry x="-160" y="480" width="60" height="50" as="geometry" />
        </mxCell>
        <mxCell id="3KlsglkxvtRmeQMmvutP-253" value="&lt;font style=&quot;font-size: 25px;&quot;&gt;m&lt;/font&gt;" style="text;html=1;align=center;verticalAlign=middle;whiteSpace=wrap;rounded=0;" vertex="1" parent="1">
          <mxGeometry x="-280" y="630" width="60" height="30" as="geometry" />
        </mxCell>
        <mxCell id="3KlsglkxvtRmeQMmvutP-254" value="&lt;span style=&quot;font-size: 25px;&quot;&gt;1&lt;/span&gt;" style="text;html=1;align=center;verticalAlign=middle;whiteSpace=wrap;rounded=0;" vertex="1" parent="1">
          <mxGeometry x="-530" y="1020" width="60" height="50" as="geometry" />
        </mxCell>
        <mxCell id="3KlsglkxvtRmeQMmvutP-255" value="&lt;span style=&quot;font-size: 25px;&quot;&gt;1&lt;/span&gt;" style="text;html=1;align=center;verticalAlign=middle;whiteSpace=wrap;rounded=0;" vertex="1" parent="1">
          <mxGeometry x="-530" y="1240" width="60" height="50" as="geometry" />
        </mxCell>
      </root>
    </mxGraphModel>
  </diagram>
</mxfile>
